<?xml version="1.0" encoding="iso-8859-1"?>
<!-- Generator: Adobe Illustrator 19.0.0, SVG Export Plug-In . SVG Version: 6.00 Build 0)  -->
<svg version="1.1" id="Layer_1" xmlns="http://www.w3.org/2000/svg" xmlns:xlink="http://www.w3.org/1999/xlink" x="0px" y="0px"
	 viewBox="0 0 512 512" style="enable-background:new 0 0 512 512;" xml:space="preserve">
<g>
	<g>
		<path d="M391.499,223.967c-1.736-3.433-5.257-5.597-9.103-5.597h-78.969l37.371-206.353c0.846-4.67-1.642-9.307-5.999-11.184
			c-4.359-1.877-9.436-0.502-12.25,3.32L121.39,277.384c-2.281,3.097-2.624,7.215-0.889,10.648c1.736,3.433,5.257,5.597,9.103,5.597
			h78.969l-37.371,206.353c-0.845,4.67,1.642,9.307,5.999,11.184c1.306,0.562,2.677,0.833,4.033,0.833
			c3.166,0,6.247-1.477,8.217-4.153L390.61,234.615C392.89,231.518,393.234,227.401,391.499,223.967z M199.116,460.312
			l31.704-175.065c0.539-2.975-0.27-6.035-2.208-8.355c-1.938-2.32-4.805-3.661-7.828-3.661h-71.007L312.883,51.686l-31.704,175.065
			c-0.539,2.975,0.27,6.035,2.208,8.355c1.938,2.32,4.805,3.661,7.828,3.661h71.007L199.116,460.312z"/>
	</g>
</g>
<g>
	<g>
		<path d="M270.393,146.011c-5.529-1.007-10.85,2.675-11.852,8.219l-0.923,5.1c-1.004,5.543,2.676,10.85,8.22,11.854
			c0.614,0.111,1.225,0.165,1.829,0.165c4.838,0,9.131-3.456,10.024-8.384l0.923-5.1
			C279.616,152.321,275.936,147.015,270.393,146.011z"/>
	</g>
</g>
<g>
	<g>
		<path d="M264.298,179.668c-5.536-1.007-10.85,2.675-11.854,8.219l-7.037,38.864c-1.004,5.543,2.675,10.85,8.219,11.854
			c0.615,0.111,1.226,0.165,1.83,0.165c4.837,0,9.132-3.456,10.024-8.384l7.037-38.864
			C273.52,185.979,269.841,180.672,264.298,179.668z"/>
	</g>
</g>
<g>
</g>
<g>
</g>
<g>
</g>
<g>
</g>
<g>
</g>
<g>
</g>
<g>
</g>
<g>
</g>
<g>
</g>
<g>
</g>
<g>
</g>
<g>
</g>
<g>
</g>
<g>
</g>
<g>
</g>
</svg>
