<?xml version='1.0' encoding='utf-8'?>
<!DOCTYPE svg PUBLIC '-//W3C//DTD SVG 1.1//EN' 'http://www.w3.org/Graphics/SVG/1.1/DTD/svg11.dtd'>
<svg version="1.1" xmlns="http://www.w3.org/2000/svg" viewBox="0 0 512 512" xmlns:xlink="http://www.w3.org/1999/xlink" enable-background="new 0 0 512 512">
  <g>
    <path d="m500.2,433.6c-11.8-52.3-52.3-93.2-103.3-106.2-7.9-70.8-68.1-126.1-140.9-126.1-13.8,0-27.2,2-39.8,5.7-8.2-11.8-12.6-25.1-12.6-38.7 0-41.7 40.4-76.5 91.9-79.2 8.8-0.5 16.4-6.6 18.7-15.1 2.3-8.5-1.2-17.6-8.6-22.4-22.6-14.7-48.8-22.4-75.6-22.4-76.7,0-139.1,62.4-139.1,139.1 0,38.7 15.9,75.1 43.8,101.4-10.5,17.2-17.4,36.8-19.7,57.7-51,13-91.5,53.9-103.3,106.2-2.7,11.9 1.2,47.5 39.8,49.3h409c39.9-1.7 42.4-37.4 39.7-49.3zm-279.1-363.2c-35.4,21.9-58.4,57.7-58.4,97.9 0,19.7 5.5,38.9 15.9,56-6.3,4.1-12.3,8.7-17.8,13.8-18.6-18.4-29.1-43.3-29.1-69.8 0-51.2 39.4-93.4 89.4-97.9zm-169.5,372.1c9.3-41.3 43.7-72.6 85.6-77.8 10.2-1.3 17.9-10 17.9-20.3 0-0.6 0-1.1 0-1.1 0-55.8 45.3-101.2 101-101.2 55.7,0 101,45.4 101,100.2 0,0.4-0.1,1.3-0.1,1.7-0.1,10.4 7.5,19.2 17.9,20.5 41.9,5.3 76.3,36.6 85.7,77.3l-409,.7z"/>
  </g>
</svg>
