<?xml version='1.0' encoding='utf-8'?>
<!DOCTYPE svg PUBLIC '-//W3C//DTD SVG 1.1//EN' 'http://www.w3.org/Graphics/SVG/1.1/DTD/svg11.dtd'>
<svg version="1.1" xmlns="http://www.w3.org/2000/svg" viewBox="0 0 512 512" xmlns:xlink="http://www.w3.org/1999/xlink" enable-background="new 0 0 512 512">
  <g>
    <g>
      <path d="m501,272.2c0-11.3-9.1-20.4-20.4-20.4-126.2,0-228.8,102.6-228.8,228.8 0,11.3 9.1,20.4 20.4,20.4 11.3,0 20.4-9.1 20.4-20.4 0-103.6 84.3-187.9 188-187.9 11.2-0.1 20.4-9.2 20.4-20.5z"/>
      <path d="m476.2,202.1c11.3,0 20.4-9.1 20.4-20.4 0-11.3-9.1-20.4-20.4-20.4-14.5,0-28.7,1-42.7,2.9-27.3-91-110.2-153.2-206.6-153.2-119,0-215.9,96.8-215.9,215.9 0,95.2 62.6,179.2 153.1,206.6-1.9,14-2.9,28.3-2.9,42.8 0,11.3 9.1,20.4 20.4,20.4 11.3,0 20.4-9.1 20.4-20.4 0-151.2 123-274.2 274.2-274.2zm-303.9,191.2c-71.4-23.4-120.5-90.5-120.5-166.4 0-96.5 78.5-175.1 175.1-175.1 76.9,0 143.1,48.8 166.4,120.5-107.1,29.3-191.7,113.8-221,221z"/>
      <path d="m476.2,348.1c-70.7,0-128.2,57.5-128.2,128.2 0,11.3 9.1,20.4 20.4,20.4 11.3,0 20.4-9.1 20.4-20.4 0-48.2 39.2-87.4 87.4-87.4 11.3,0 20.4-9.1 20.4-20.4 1.13687e-13-11.3-9.1-20.4-20.4-20.4z"/>
    </g>
  </g>
</svg>
