<?xml version='1.0' encoding='utf-8'?>
<!DOCTYPE svg PUBLIC '-//W3C//DTD SVG 1.1//EN' 'http://www.w3.org/Graphics/SVG/1.1/DTD/svg11.dtd'>
<svg version="1.1" xmlns="http://www.w3.org/2000/svg" viewBox="0 0 512 512" xmlns:xlink="http://www.w3.org/1999/xlink" enable-background="new 0 0 512 512">
  <g>
    <path d="m276.4,40.2v-8.8c0-11.3-9.1-20.4-20.4-20.4-11.3,0-20.4,9.1-20.4,20.4v8.8c-125.6,9.6-224.6,106.9-224.6,225.2 0,11.3 9.1,20.4 20.4,20.4h204.2v145c0,16.2-15.2,29.3-33.9,29.3-18.7,0-33.9-13.1-33.9-29.3 0-11.3-9.1-20.4-20.4-20.4-11.3,0-20.4,9.1-20.4,20.4 0,38.7 33.5,70.1 74.7,70.1 41.2,0 74.7-31.5 74.7-70.1v-145h204.2c11.3,0 20.4-9.1 20.4-20.4 5.68434e-14-118.3-99-215.6-224.6-225.2zm-91.7,51.7c-21,36.8-34.7,90.6-37.2,153.1h-94.4c8.5-70.4 60.8-129.1 131.6-153.1zm3.7,153.1c4.3-102.6 40.9-164.7 67.6-164.7 26.7,0 63.3,62.1 67.6,164.7h-135.2zm176.1,0c-2.5-62.5-16.1-116.2-37.2-153.1 70.8,24 123.1,82.7 131.6,153.1h-94.4z"/>
  </g>
</svg>
